<svg width="36" height="36" viewBox="0 0 36 36" fill="none" xmlns="http://www.w3.org/2000/svg">
<g id="btc">
<path id="Ellipse 1" d="M35 18C35 27.3888 27.3888 35 18 35C8.61116 35 1 27.3888 1 18C1 8.61116 8.61116 1 18 1C27.3888 1 35 8.61116 35 18Z" fill="url(#paint0_linear_1_517)" stroke="url(#paint1_linear_1_517)" stroke-width="2"/>
<path id="Vector" d="M22.3743 17.3516C23.1305 16.5798 23.5982 15.5197 23.5982 14.3504C23.5982 12.1209 21.8832 10.2813 19.7005 10.0786V9.28346C19.7005 8.85472 19.3498 8.50394 18.921 8.50394C18.4923 8.50394 18.1415 8.85472 18.1415 9.28346V10.063H16.5824V9.28346C16.5824 8.85472 16.2317 8.50394 15.8029 8.50394C15.3742 8.50394 15.0234 8.85472 15.0234 9.28346V10.063C13.3006 10.063 11.9053 11.4583 11.9053 13.1811V22.5354C11.9053 24.2582 13.3006 25.6535 15.0234 25.6535V26.4331C15.0234 26.8618 15.3742 27.2126 15.8029 27.2126C16.2317 27.2126 16.5824 26.8618 16.5824 26.4331V25.6535H18.1415V26.4331C18.1415 26.8618 18.4923 27.2126 18.921 27.2126C19.3498 27.2126 19.7005 26.8618 19.7005 26.4331V25.6535H20.8698C23.2318 25.6535 25.1572 23.7281 25.1572 21.3661C25.1572 19.5265 23.9957 17.9596 22.3743 17.3516ZM13.4643 13.1811C13.4643 12.3236 14.1659 11.622 15.0234 11.622H19.3108C20.8153 11.622 22.0391 12.8459 22.0391 14.3504C22.0391 15.8549 20.8153 17.0787 19.3108 17.0787H13.4643V13.1811ZM20.8698 24.0945H15.0234C14.1659 24.0945 13.4643 23.3929 13.4643 22.5354V18.6378H20.8698C22.3743 18.6378 23.5982 19.8617 23.5982 21.3661C23.5982 22.8706 22.3743 24.0945 20.8698 24.0945Z" fill="url(#paint2_linear_1_517)"/>
</g>
<defs>
<linearGradient id="paint0_linear_1_517" x1="-9.62069" y1="1.55077" x2="52.2951" y2="14.9522" gradientUnits="userSpaceOnUse">
<stop stop-color="#FFE664"/>
<stop offset="1" stop-color="#FA8341"/>
</linearGradient>
<linearGradient id="paint1_linear_1_517" x1="-1.98425" y1="1.27559" x2="37.8425" y2="36" gradientUnits="userSpaceOnUse">
<stop stop-color="#FFC164"/>
<stop offset="1" stop-color="#EE7532"/>
</linearGradient>
<linearGradient id="paint2_linear_1_517" x1="9.85437" y1="6.38362" x2="20.309" y2="30.7864" gradientUnits="userSpaceOnUse">
<stop stop-color="#E87A3D"/>
<stop offset="0.515625" stop-color="#C25B21"/>
<stop offset="1" stop-color="#943500"/>
</linearGradient>
</defs>
</svg>
