<svg width="80" height="80" viewBox="0 0 80 80" fill="none" xmlns="http://www.w3.org/2000/svg">
<g id="btc">
<path id="Ellipse 1" d="M79 40C79 61.5391 61.5391 79 40 79C18.4609 79 1 61.5391 1 40C1 18.4609 18.4609 1 40 1C61.5391 1 79 18.4609 79 40Z" fill="url(#paint0_linear_1_713)" stroke="url(#paint1_linear_1_713)" stroke-width="2"/>
<path id="Vector" d="M49.7206 38.5591C51.4009 36.8441 52.4403 34.4882 52.4403 31.8898C52.4403 26.9354 48.6293 22.8472 43.7789 22.3969V20.6299C43.7789 19.6772 42.9994 18.8976 42.0466 18.8976C41.0939 18.8976 40.3143 19.6772 40.3143 20.6299V22.3622H36.8498V20.6299C36.8498 19.6772 36.0702 18.8976 35.1175 18.8976C34.1647 18.8976 33.3852 19.6772 33.3852 20.6299V22.3622C29.5568 22.3622 26.4561 25.463 26.4561 29.2913V50.0787C26.4561 53.9071 29.5568 57.0079 33.3852 57.0079V58.7402C33.3852 59.6929 34.1647 60.4724 35.1175 60.4724C36.0702 60.4724 36.8498 59.6929 36.8498 58.7402V57.0079H40.3143V58.7402C40.3143 59.6929 41.0939 60.4724 42.0466 60.4724C42.9994 60.4724 43.7789 59.6929 43.7789 58.7402V57.0079H46.3773C51.6261 57.0079 55.9049 52.7291 55.9049 47.4803C55.9049 43.3921 53.3238 39.9102 49.7206 38.5591ZM29.9206 29.2913C29.9206 27.3858 31.4797 25.8268 33.3852 25.8268H42.9127C46.2561 25.8268 48.9757 28.5465 48.9757 31.8898C48.9757 35.2331 46.2561 37.9528 42.9127 37.9528H29.9206V29.2913ZM46.3773 53.5433H33.3852C31.4797 53.5433 29.9206 51.9843 29.9206 50.0787V41.4173H46.3773C49.7206 41.4173 52.4403 44.137 52.4403 47.4803C52.4403 50.8236 49.7206 53.5433 46.3773 53.5433Z" fill="url(#paint2_linear_1_713)"/>
</g>
<defs>
<linearGradient id="paint0_linear_1_713" x1="-21.3793" y1="3.44616" x2="116.211" y2="33.227" gradientUnits="userSpaceOnUse">
<stop stop-color="#FFE664"/>
<stop offset="1" stop-color="#FA8341"/>
</linearGradient>
<linearGradient id="paint1_linear_1_713" x1="-4.40945" y1="2.83464" x2="84.0945" y2="80" gradientUnits="userSpaceOnUse">
<stop stop-color="#FFC164"/>
<stop offset="1" stop-color="#EE7532"/>
</linearGradient>
<linearGradient id="paint2_linear_1_713" x1="21.8985" y1="14.1858" x2="45.131" y2="68.4142" gradientUnits="userSpaceOnUse">
<stop stop-color="#E87A3D"/>
<stop offset="0.515625" stop-color="#C25B21"/>
<stop offset="1" stop-color="#943500"/>
</linearGradient>
</defs>
</svg>
