<svg width="56" height="60" viewBox="0 0 56 60" fill="none" xmlns="http://www.w3.org/2000/svg">
<path d="M40.5 17.5C40.5 18.163 40.2366 18.7989 39.7678 19.2678C39.2989 19.7366 38.663 20 38 20H18C17.337 20 16.7011 19.7366 16.2322 19.2678C15.7634 18.7989 15.5 18.163 15.5 17.5C15.5 16.837 15.7634 16.2011 16.2322 15.7322C16.7011 15.2634 17.337 15 18 15H38C38.663 15 39.2989 15.2634 39.7678 15.7322C40.2366 16.2011 40.5 16.837 40.5 17.5ZM55.5 12.5V47.5C55.496 50.814 54.1778 53.9911 51.8345 56.3345C49.4911 58.6778 46.314 59.996 43 60H13C9.68601 59.996 6.50889 58.6778 4.16555 56.3345C1.8222 53.9911 0.50397 50.814 0.5 47.5V12.5C0.50397 9.18601 1.8222 6.00889 4.16555 3.66555C6.50889 1.3222 9.68601 0.00396964 13 0L43 0C46.314 0.00396964 49.4911 1.3222 51.8345 3.66555C54.1778 6.00889 55.496 9.18601 55.5 12.5ZM15.5 45C15.5 44.5055 15.3534 44.0222 15.0787 43.6111C14.804 43.2 14.4135 42.8795 13.9567 42.6903C13.4999 42.5011 12.9972 42.4516 12.5123 42.548C12.0273 42.6445 11.5819 42.8826 11.2322 43.2322C10.8826 43.5819 10.6445 44.0273 10.548 44.5123C10.4516 44.9972 10.5011 45.4999 10.6903 45.9567C10.8795 46.4135 11.2 46.804 11.6111 47.0787C12.0222 47.3534 12.5055 47.5 13 47.5C13.663 47.5 14.2989 47.2366 14.7678 46.7678C15.2366 46.2989 15.5 45.663 15.5 45ZM15.5 35C15.5 34.5055 15.3534 34.0222 15.0787 33.6111C14.804 33.2 14.4135 32.8795 13.9567 32.6903C13.4999 32.5011 12.9972 32.4516 12.5123 32.548C12.0273 32.6445 11.5819 32.8826 11.2322 33.2322C10.8826 33.5819 10.6445 34.0273 10.548 34.5123C10.4516 34.9972 10.5011 35.4999 10.6903 35.9567C10.8795 36.4135 11.2 36.804 11.6111 37.0787C12.0222 37.3534 12.5055 37.5 13 37.5C13.663 37.5 14.2989 37.2366 14.7678 36.7678C15.2366 36.2989 15.5 35.663 15.5 35ZM25.5 45C25.5 44.5055 25.3534 44.0222 25.0787 43.6111C24.804 43.2 24.4135 42.8795 23.9567 42.6903C23.4999 42.5011 22.9972 42.4516 22.5123 42.548C22.0273 42.6445 21.5819 42.8826 21.2322 43.2322C20.8826 43.5819 20.6445 44.0273 20.548 44.5123C20.4516 44.9972 20.5011 45.4999 20.6903 45.9567C20.8795 46.4135 21.2 46.804 21.6111 47.0787C22.0222 47.3534 22.5055 47.5 23 47.5C23.663 47.5 24.2989 47.2366 24.7678 46.7678C25.2366 46.2989 25.5 45.663 25.5 45ZM25.5 35C25.5 34.5055 25.3534 34.0222 25.0787 33.6111C24.804 33.2 24.4135 32.8795 23.9567 32.6903C23.4999 32.5011 22.9972 32.4516 22.5123 32.548C22.0273 32.6445 21.5819 32.8826 21.2322 33.2322C20.8826 33.5819 20.6445 34.0273 20.548 34.5123C20.4516 34.9972 20.5011 35.4999 20.6903 35.9567C20.8795 36.4135 21.2 36.804 21.6111 37.0787C22.0222 37.3534 22.5055 37.5 23 37.5C23.663 37.5 24.2989 37.2366 24.7678 36.7678C25.2366 36.2989 25.5 35.663 25.5 35ZM45.5 45C45.5 44.337 45.2366 43.7011 44.7678 43.2322C44.2989 42.7634 43.663 42.5 43 42.5H33C32.337 42.5 31.7011 42.7634 31.2322 43.2322C30.7634 43.7011 30.5 44.337 30.5 45C30.5 45.663 30.7634 46.2989 31.2322 46.7678C31.7011 47.2366 32.337 47.5 33 47.5H43C43.663 47.5 44.2989 47.2366 44.7678 46.7678C45.2366 46.2989 45.5 45.663 45.5 45ZM33 37.5C33.4945 37.5 33.9778 37.3534 34.3889 37.0787C34.8 36.804 35.1205 36.4135 35.3097 35.9567C35.4989 35.4999 35.5484 34.9972 35.452 34.5123C35.3555 34.0273 35.1174 33.5819 34.7678 33.2322C34.4181 32.8826 33.9727 32.6445 33.4877 32.548C33.0028 32.4516 32.5001 32.5011 32.0433 32.6903C31.5865 32.8795 31.196 33.2 30.9213 33.6111C30.6466 34.0222 30.5 34.5055 30.5 35C30.5 35.663 30.7634 36.2989 31.2322 36.7678C31.7011 37.2366 32.337 37.5 33 37.5ZM45.5 35C45.5 34.5055 45.3534 34.0222 45.0787 33.6111C44.804 33.2 44.4135 32.8795 43.9567 32.6903C43.4999 32.5011 42.9972 32.4516 42.5123 32.548C42.0273 32.6445 41.5819 32.8826 41.2322 33.2322C40.8826 33.5819 40.6445 34.0273 40.548 34.5123C40.4516 34.9972 40.5011 35.4999 40.6903 35.9567C40.8795 36.4135 41.2 36.804 41.6111 37.0787C42.0222 37.3534 42.5055 37.5 43 37.5C43.663 37.5 44.2989 37.2366 44.7678 36.7678C45.2366 36.2989 45.5 35.663 45.5 35ZM45.5 17.5C45.5 15.5109 44.7098 13.6032 43.3033 12.1967C41.8968 10.7902 39.9891 10 38 10H18C16.0109 10 14.1032 10.7902 12.6967 12.1967C11.2902 13.6032 10.5 15.5109 10.5 17.5C10.5 19.4891 11.2902 21.3968 12.6967 22.8033C14.1032 24.2098 16.0109 25 18 25H38C39.9891 25 41.8968 24.2098 43.3033 22.8033C44.7098 21.3968 45.5 19.4891 45.5 17.5Z" fill="url(#paint0_linear_1_687)"/>
<defs>
<linearGradient id="paint0_linear_1_687" x1="-14.1983" y1="2.58462" x2="81.0763" y2="21.4879" gradientUnits="userSpaceOnUse">
<stop stop-color="#FFE664"/>
<stop offset="1" stop-color="#FA8341"/>
</linearGradient>
</defs>
</svg>
