<svg width="42" height="28" viewBox="0 0 42 28" fill="none" xmlns="http://www.w3.org/2000/svg">
<path d="M33.25 0H8.75C6.43021 0.00277875 4.20623 0.925543 2.56588 2.56588C0.925543 4.20623 0.00277875 6.43021 0 8.75L0 19.25C0.00277875 21.5698 0.925543 23.7938 2.56588 25.4341C4.20623 27.0745 6.43021 27.9972 8.75 28H33.25C35.5698 27.9972 37.7938 27.0745 39.4341 25.4341C41.0745 23.7938 41.9972 21.5698 42 19.25V8.75C41.9972 6.43021 41.0745 4.20623 39.4341 2.56588C37.7938 0.925543 35.5698 0.00277875 33.25 0ZM7 22.75C6.65388 22.75 6.31554 22.6474 6.02775 22.4551C5.73997 22.2628 5.51566 21.9895 5.38321 21.6697C5.25076 21.3499 5.2161 20.9981 5.28363 20.6586C5.35115 20.3191 5.51782 20.0073 5.76256 19.7626C6.00731 19.5178 6.31913 19.3511 6.65859 19.2836C6.99806 19.2161 7.34993 19.2508 7.6697 19.3832C7.98947 19.5157 8.26278 19.74 8.45507 20.0278C8.64736 20.3155 8.75 20.6539 8.75 21C8.75 21.4641 8.56563 21.9092 8.23744 22.2374C7.90925 22.5656 7.46413 22.75 7 22.75ZM7 8.75C6.65388 8.75 6.31554 8.64736 6.02775 8.45507C5.73997 8.26278 5.51566 7.98947 5.38321 7.6697C5.25076 7.34993 5.2161 6.99806 5.28363 6.65859C5.35115 6.31912 5.51782 6.00731 5.76256 5.76256C6.00731 5.51782 6.31913 5.35115 6.65859 5.28363C6.99806 5.2161 7.34993 5.25076 7.6697 5.38321C7.98947 5.51566 8.26278 5.73997 8.45507 6.02775C8.64736 6.31554 8.75 6.65388 8.75 7C8.75 7.46413 8.56563 7.90925 8.23744 8.23744C7.90925 8.56562 7.46413 8.75 7 8.75ZM21 21C19.6155 21 18.2622 20.5895 17.111 19.8203C15.9599 19.0511 15.0627 17.9579 14.5328 16.6788C14.003 15.3997 13.8644 13.9922 14.1345 12.6344C14.4046 11.2765 15.0713 10.0292 16.0503 9.05025C17.0292 8.07128 18.2765 7.4046 19.6344 7.1345C20.9922 6.86441 22.3997 7.00303 23.6788 7.53284C24.9579 8.06266 26.0511 8.95986 26.8203 10.111C27.5895 11.2622 28 12.6155 28 14C28 15.8565 27.2625 17.637 25.9497 18.9497C24.637 20.2625 22.8565 21 21 21ZM35 22.75C34.6539 22.75 34.3155 22.6474 34.0278 22.4551C33.74 22.2628 33.5157 21.9895 33.3832 21.6697C33.2508 21.3499 33.2161 20.9981 33.2836 20.6586C33.3512 20.3191 33.5178 20.0073 33.7626 19.7626C34.0073 19.5178 34.3191 19.3511 34.6586 19.2836C34.9981 19.2161 35.3499 19.2508 35.6697 19.3832C35.9895 19.5157 36.2628 19.74 36.4551 20.0278C36.6474 20.3155 36.75 20.6539 36.75 21C36.75 21.4641 36.5656 21.9092 36.2374 22.2374C35.9092 22.5656 35.4641 22.75 35 22.75ZM35 8.75C34.6539 8.75 34.3155 8.64736 34.0278 8.45507C33.74 8.26278 33.5157 7.98947 33.3832 7.6697C33.2508 7.34993 33.2161 6.99806 33.2836 6.65859C33.3512 6.31912 33.5178 6.00731 33.7626 5.76256C34.0073 5.51782 34.3191 5.35115 34.6586 5.28363C34.9981 5.2161 35.3499 5.25076 35.6697 5.38321C35.9895 5.51566 36.2628 5.73997 36.4551 6.02775C36.6474 6.31554 36.75 6.65388 36.75 7C36.75 7.46413 36.5656 7.90925 36.2374 8.23744C35.9092 8.56562 35.4641 8.75 35 8.75ZM24.5 14C24.5 14.6922 24.2947 15.3689 23.9101 15.9445C23.5256 16.5201 22.9789 16.9687 22.3394 17.2336C21.6999 17.4985 20.9961 17.5678 20.3172 17.4327C19.6383 17.2977 19.0146 16.9644 18.5251 16.4749C18.0356 15.9854 17.7023 15.3617 17.5673 14.6828C17.4322 14.0039 17.5015 13.3001 17.7664 12.6606C18.0313 12.0211 18.4799 11.4744 19.0555 11.0899C19.6311 10.7053 20.3078 10.5 21 10.5C21.9283 10.5 22.8185 10.8687 23.4749 11.5251C24.1313 12.1815 24.5 13.0717 24.5 14Z" fill="white" fill-opacity="0.5"/>
</svg>
